# This file uses centimeters as units for non-parametric coordinates.

mtllib Flare.mtl
g default
v -1.000000 0.951057 -0.309017
v -1.000000 0.809018 -0.587786
v -1.000000 0.587786 -0.809017
v -1.000000 0.309017 -0.951057
v -1.000000 0.000000 -1.000000
v -1.000000 -0.309017 -0.951057
v -1.000000 -0.587785 -0.809017
v -1.000000 -0.809017 -0.587785
v -1.000000 -0.951057 -0.309017
v -1.000000 -1.000000 0.000000
v -1.000000 -0.951057 0.309017
v -1.000000 -0.809017 0.587785
v -1.000000 -0.587785 0.809017
v -1.000000 -0.309017 0.951057
v -1.000000 -0.000000 1.000000
v -1.000000 0.309017 0.951057
v -1.000000 0.587785 0.809017
v -1.000000 0.809017 0.587785
v -1.000000 0.951057 0.309017
v -1.000000 1.000000 0.000000
v -1.309017 0.904509 -0.293893
v -1.309017 0.769421 -0.559017
v -1.309017 0.559017 -0.769421
v -1.309017 0.293893 -0.904509
v -1.309017 0.000000 -0.951057
v -1.309017 -0.293893 -0.904509
v -1.309017 -0.559017 -0.769421
v -1.309017 -0.769421 -0.559017
v -1.309017 -0.904509 -0.293893
v -1.309017 -0.951057 0.000000
v -1.309017 -0.904509 0.293893
v -1.309017 -0.769421 0.559017
v -1.309017 -0.559017 0.769421
v -1.309017 -0.293893 0.904509
v -1.309017 0.000000 0.951057
v -1.309017 0.293893 0.904509
v -1.309017 0.559017 0.769421
v -1.309017 0.769421 0.559017
v -1.309017 0.904509 0.293893
v -1.309017 0.951057 0.000000
v -1.587785 0.769421 -0.250000
v -1.587785 0.654509 -0.475528
v -1.587785 0.475528 -0.654509
v -1.587785 0.250000 -0.769421
v -1.587785 0.000000 -0.809017
v -1.587785 -0.250000 -0.769421
v -1.587785 -0.475528 -0.654509
v -1.587785 -0.654509 -0.475528
v -1.587785 -0.769421 -0.250000
v -1.587785 -0.809017 0.000000
v -1.587785 -0.769421 0.250000
v -1.587785 -0.654509 0.475528
v -1.587785 -0.475528 0.654509
v -1.587785 -0.250000 0.769421
v -1.587785 0.000000 0.809017
v -1.587785 0.250000 0.769421
v -1.587785 0.475528 0.654509
v -1.587785 0.654509 0.475528
v -1.587785 0.769421 0.250000
v -1.587785 0.809017 0.000000
v -1.809017 0.559017 -0.181636
v -1.809017 0.475528 -0.345491
v -1.809017 0.345491 -0.475528
v -1.809017 0.181636 -0.559017
v -1.809017 0.000000 -0.587785
v -1.809017 -0.181636 -0.559017
v -1.809017 -0.345491 -0.475528
v -1.809017 -0.475528 -0.345491
v -1.809017 -0.559017 -0.181636
v -1.809017 -0.587785 0.000000
v -1.809017 -0.559017 0.181636
v -1.809017 -0.475528 0.345491
v -1.809017 -0.345491 0.475528
v -1.809017 -0.181636 0.559017
v -1.809017 0.000000 0.587785
v -1.809017 0.181636 0.559017
v -1.809017 0.345491 0.475528
v -1.809017 0.475528 0.345491
v -1.809017 0.559017 0.181636
v -1.809017 0.587785 0.000000
v -1.951056 0.293893 -0.095492
v -1.951056 0.250000 -0.181636
v -1.951056 0.181636 -0.250000
v -1.951056 0.095492 -0.293893
v -1.951056 0.000000 -0.309017
v -1.951056 -0.095492 -0.293893
v -1.951056 -0.181636 -0.250000
v -1.951056 -0.250000 -0.181636
v -1.951056 -0.293893 -0.095492
v -1.951056 -0.309017 0.000000
v -1.951056 -0.293893 0.095492
v -1.951056 -0.250000 0.181636
v -1.951056 -0.181636 0.250000
v -1.951056 -0.095492 0.293893
v -1.951056 0.000000 0.309017
v -1.951056 0.095492 0.293893
v -1.951056 0.181636 0.250000
v -1.951056 0.250000 0.181636
v -1.951056 0.293893 0.095492
v -1.951056 0.309017 0.000000
v -2.000000 0.000000 0.000000
v -0.000000 -0.587785 0.809017
v -0.000000 -0.809017 0.587785
v -0.000000 -0.951057 0.309017
v -0.000000 -1.000000 0.000000
v -0.000000 -0.951057 -0.309017
v -0.000000 -0.809017 -0.587785
v -0.000000 -0.587785 -0.809017
v -0.000000 -0.309017 -0.951057
v 0.000000 0.000000 -1.000000
v 0.000000 0.309017 -0.951057
v 0.000000 0.587786 -0.809017
v 0.000000 0.809018 -0.587786
v 0.000000 0.951057 -0.309017
v 0.000000 1.000000 0.000000
v 0.000000 0.951057 0.309017
v 0.000000 0.809017 0.587785
v 0.000000 0.587785 0.809017
v 0.000000 0.309017 0.951057
v -0.000000 -0.000000 1.000000
v -0.000000 -0.309017 0.951057
vt 0.384081 0.781810
vt 0.302671 0.732196
vt 0.340665 0.686701
vt 0.406158 0.726800
vt 0.240576 0.659853
vt 0.290770 0.628326
vt 0.203876 0.571863
vt 0.261356 0.557390
vt 0.196163 0.476838
vt 0.255302 0.480836
vt 0.218191 0.384081
vt 0.273200 0.406158
vt 0.267804 0.302671
vt 0.313299 0.340666
vt 0.340147 0.240576
vt 0.371674 0.290770
vt 0.428137 0.203876
vt 0.442610 0.261356
vt 0.523162 0.196162
vt 0.519164 0.255301
vt 0.615919 0.218191
vt 0.593842 0.273200
vt 0.697329 0.267804
vt 0.659335 0.313299
vt 0.759424 0.340147
vt 0.709230 0.371674
vt 0.796124 0.428137
vt 0.738644 0.442610
vt 0.803837 0.523162
vt 0.744699 0.519164
vt 0.781809 0.615919
vt 0.726800 0.593842
vt 0.732196 0.697329
vt 0.686701 0.659334
vt 0.659853 0.759424
vt 0.628326 0.709230
vt 0.571863 0.796124
vt 0.557390 0.738644
vt 0.476838 0.803838
vt 0.480836 0.744699
vt 0.379143 0.640422
vt 0.428451 0.670896
vt 0.341666 0.596203
vt 0.319687 0.542566
vt 0.315358 0.484763
vt 0.329104 0.428451
vt 0.359578 0.379143
vt 0.403798 0.341666
vt 0.457434 0.319687
vt 0.515237 0.315358
vt 0.571549 0.329104
vt 0.620857 0.359578
vt 0.658334 0.403797
vt 0.680313 0.457434
vt 0.684642 0.515237
vt 0.670896 0.571549
vt 0.640422 0.620857
vt 0.596202 0.658334
vt 0.542566 0.680313
vt 0.484763 0.684642
vt 0.418489 0.593679
vt 0.451426 0.614282
vt 0.393530 0.563906
vt 0.378993 0.527877
vt 0.376301 0.489119
vt 0.385718 0.451426
vt 0.406321 0.418489
vt 0.436095 0.393530
vt 0.472124 0.378993
vt 0.510881 0.376301
vt 0.548574 0.385718
vt 0.581512 0.406321
vt 0.606471 0.436094
vt 0.621007 0.472123
vt 0.623699 0.510881
vt 0.614283 0.548573
vt 0.593679 0.581511
vt 0.563906 0.606470
vt 0.527877 0.621007
vt 0.489119 0.623699
vt 0.458776 0.546845
vt 0.475270 0.557291
vt 0.446318 0.531813
vt 0.439115 0.513667
vt 0.437871 0.494184
vt 0.442709 0.475270
vt 0.453155 0.458776
vt 0.468187 0.446318
vt 0.486333 0.439115
vt 0.505816 0.437871
vt 0.524731 0.442709
vt 0.541224 0.453155
vt 0.553682 0.468187
vt 0.560885 0.486333
vt 0.562129 0.505816
vt 0.557291 0.524730
vt 0.546845 0.541224
vt 0.531813 0.553682
vt 0.513667 0.560885
vt 0.494184 0.562129
vt 0.500000 0.500000
vt 0.819614 0.114179
vt 0.923196 0.231829
vt 0.684746 0.034296
vt 0.531793 0.000000
vt 0.375729 0.014647
vt 0.231829 0.076804
vt 0.114179 0.180386
vt 0.034296 0.315254
vt 0.000000 0.468207
vt 0.014647 0.624271
vt 0.076804 0.768171
vt 0.180386 0.885821
vt 0.315254 0.965704
vt 0.468207 1.000000
vt 0.624271 0.985353
vt 0.768171 0.923196
vt 0.885821 0.819614
vt 0.965704 0.684745
vt 1.000000 0.531793
vt 0.985353 0.375729
vn -0.036222 0.950433 -0.308813
vn -0.036222 0.808486 -0.587400
vn -0.296610 0.772610 -0.561334
vn -0.296610 0.908258 -0.295111
vn -0.036222 0.587399 -0.808486
vn -0.296610 0.561334 -0.772610
vn -0.036222 0.308814 -0.950432
vn -0.296610 0.295111 -0.908258
vn -0.036222 -0.000000 -0.999344
vn -0.296610 0.000000 -0.954999
vn -0.036222 -0.308814 -0.950432
vn -0.296610 -0.295111 -0.908258
vn -0.036222 -0.587400 -0.808486
vn -0.296610 -0.561334 -0.772610
vn -0.036222 -0.808486 -0.587399
vn -0.296609 -0.772610 -0.561334
vn -0.036222 -0.950432 -0.308814
vn -0.296609 -0.908258 -0.295111
vn -0.036222 -0.999344 0.000000
vn -0.296609 -0.954999 0.000000
vn -0.036222 -0.950432 0.308814
vn -0.296609 -0.908258 0.295111
vn -0.036222 -0.808486 0.587400
vn -0.296609 -0.772610 0.561334
vn -0.036222 -0.587399 0.808486
vn -0.296609 -0.561334 0.772610
vn -0.036222 -0.308814 0.950432
vn -0.296609 -0.295111 0.908258
vn -0.036222 0.000000 0.999344
vn -0.296609 0.000000 0.954999
vn -0.036222 0.308814 0.950432
vn -0.296609 0.295111 0.908258
vn -0.036222 0.587400 0.808486
vn -0.296609 0.561334 0.772610
vn -0.036222 0.808486 0.587399
vn -0.296609 0.772611 0.561334
vn -0.036222 0.950432 0.308814
vn -0.296609 0.908258 0.295111
vn -0.036222 0.999344 0.000001
vn -0.296609 0.954999 0.000000
vn -0.565463 0.667256 -0.484790
vn -0.565463 0.784406 -0.254869
vn -0.565463 0.484790 -0.667256
vn -0.565463 0.254869 -0.784406
vn -0.565463 0.000000 -0.824774
vn -0.565463 -0.254869 -0.784406
vn -0.565463 -0.484790 -0.667256
vn -0.565463 -0.667256 -0.484790
vn -0.565463 -0.784406 -0.254869
vn -0.565463 -0.824773 0.000000
vn -0.565463 -0.784406 0.254869
vn -0.565463 -0.667256 0.484790
vn -0.565463 -0.484790 0.667256
vn -0.565463 -0.254869 0.784406
vn -0.565463 0.000000 0.824774
vn -0.565463 0.254869 0.784406
vn -0.565463 0.484790 0.667256
vn -0.565463 0.667256 0.484790
vn -0.565463 0.784406 0.254869
vn -0.565463 0.824773 -0.000000
vn -0.780862 0.505396 -0.367192
vn -0.780862 0.594129 -0.193044
vn -0.780862 0.367192 -0.505396
vn -0.780862 0.193044 -0.594129
vn -0.780862 0.000000 -0.624704
vn -0.780862 -0.193044 -0.594129
vn -0.780861 -0.367192 -0.505396
vn -0.780861 -0.505396 -0.367192
vn -0.780862 -0.594129 -0.193044
vn -0.780862 -0.624704 0.000000
vn -0.780862 -0.594129 0.193044
vn -0.780862 -0.505396 0.367192
vn -0.780862 -0.367192 0.505396
vn -0.780862 -0.193044 0.594129
vn -0.780862 0.000000 0.624704
vn -0.780862 0.193044 0.594129
vn -0.780861 0.367192 0.505396
vn -0.780861 0.505396 0.367192
vn -0.780862 0.594129 0.193044
vn -0.780862 0.624704 -0.000000
vn -0.920269 0.316558 -0.229993
vn -0.920269 0.372136 -0.120915
vn -0.920269 0.229993 -0.316558
vn -0.920269 0.120914 -0.372136
vn -0.920269 0.000000 -0.391287
vn -0.920269 -0.120914 -0.372136
vn -0.920269 -0.229993 -0.316558
vn -0.920269 -0.316558 -0.229993
vn -0.920269 -0.372136 -0.120914
vn -0.920269 -0.391287 0.000000
vn -0.920269 -0.372136 0.120915
vn -0.920269 -0.316558 0.229993
vn -0.920269 -0.229993 0.316558
vn -0.920269 -0.120914 0.372136
vn -0.920269 0.000000 0.391287
vn -0.920269 0.120914 0.372136
vn -0.920269 0.229993 0.316558
vn -0.920269 0.316558 0.229993
vn -0.920269 0.372136 0.120914
vn -0.920269 0.391287 -0.000000
vn -1.000000 0.000000 -0.000000
vn -0.000000 -0.809017 0.587785
vn -0.000000 -0.587785 0.809017
vn -0.000000 -0.951057 0.309017
vn -0.000000 -1.000000 0.000000
vn -0.000000 -0.951057 -0.309017
vn -0.000000 -0.809017 -0.587785
vn -0.000000 -0.587785 -0.809017
vn -0.000000 -0.309017 -0.951056
vn -0.000000 -0.000000 -1.000000
vn 0.000000 0.309017 -0.951057
vn 0.000000 0.587785 -0.809017
vn 0.000000 0.809017 -0.587785
vn 0.000000 0.951057 -0.309016
vn 0.000000 1.000000 0.000001
vn 0.000000 0.951057 0.309017
vn 0.000000 0.809017 0.587785
vn 0.000000 0.587785 0.809017
vn 0.000000 0.309017 0.951057
vn 0.000000 0.000000 1.000000
vn -0.000000 -0.309017 0.951057
s 1
g pCylinder1
usemtl initialShadingGroup
f 1/1/1 2/2/2 22/3/3 21/4/4
f 2/2/2 3/5/5 23/6/6 22/3/3
f 3/5/5 4/7/7 24/8/8 23/6/6
f 4/7/7 5/9/9 25/10/10 24/8/8
f 5/9/9 6/11/11 26/12/12 25/10/10
f 6/11/11 7/13/13 27/14/14 26/12/12
f 7/13/13 8/15/15 28/16/16 27/14/14
f 8/15/15 9/17/17 29/18/18 28/16/16
f 9/17/17 10/19/19 30/20/20 29/18/18
f 10/19/19 11/21/21 31/22/22 30/20/20
f 11/21/21 12/23/23 32/24/24 31/22/22
f 12/23/23 13/25/25 33/26/26 32/24/24
f 13/25/25 14/27/27 34/28/28 33/26/26
f 14/27/27 15/29/29 35/30/30 34/28/28
f 15/29/29 16/31/31 36/32/32 35/30/30
f 16/31/31 17/33/33 37/34/34 36/32/32
f 17/33/33 18/35/35 38/36/36 37/34/34
f 18/35/35 19/37/37 39/38/38 38/36/36
f 19/37/37 20/39/39 40/40/40 39/38/38
f 20/39/39 1/1/1 21/4/4 40/40/40
f 21/4/4 22/3/3 42/41/41 41/42/42
f 22/3/3 23/6/6 43/43/43 42/41/41
f 23/6/6 24/8/8 44/44/44 43/43/43
f 24/8/8 25/10/10 45/45/45 44/44/44
f 25/10/10 26/12/12 46/46/46 45/45/45
f 26/12/12 27/14/14 47/47/47 46/46/46
f 27/14/14 28/16/16 48/48/48 47/47/47
f 28/16/16 29/18/18 49/49/49 48/48/48
f 29/18/18 30/20/20 50/50/50 49/49/49
f 30/20/20 31/22/22 51/51/51 50/50/50
f 31/22/22 32/24/24 52/52/52 51/51/51
f 32/24/24 33/26/26 53/53/53 52/52/52
f 33/26/26 34/28/28 54/54/54 53/53/53
f 34/28/28 35/30/30 55/55/55 54/54/54
f 35/30/30 36/32/32 56/56/56 55/55/55
f 36/32/32 37/34/34 57/57/57 56/56/56
f 37/34/34 38/36/36 58/58/58 57/57/57
f 38/36/36 39/38/38 59/59/59 58/58/58
f 39/38/38 40/40/40 60/60/60 59/59/59
f 40/40/40 21/4/4 41/42/42 60/60/60
f 41/42/42 42/41/41 62/61/61 61/62/62
f 42/41/41 43/43/43 63/63/63 62/61/61
f 43/43/43 44/44/44 64/64/64 63/63/63
f 44/44/44 45/45/45 65/65/65 64/64/64
f 45/45/45 46/46/46 66/66/66 65/65/65
f 46/46/46 47/47/47 67/67/67 66/66/66
f 47/47/47 48/48/48 68/68/68 67/67/67
f 48/48/48 49/49/49 69/69/69 68/68/68
f 49/49/49 50/50/50 70/70/70 69/69/69
f 50/50/50 51/51/51 71/71/71 70/70/70
f 51/51/51 52/52/52 72/72/72 71/71/71
f 52/52/52 53/53/53 73/73/73 72/72/72
f 53/53/53 54/54/54 74/74/74 73/73/73
f 54/54/54 55/55/55 75/75/75 74/74/74
f 55/55/55 56/56/56 76/76/76 75/75/75
f 56/56/56 57/57/57 77/77/77 76/76/76
f 57/57/57 58/58/58 78/78/78 77/77/77
f 58/58/58 59/59/59 79/79/79 78/78/78
f 59/59/59 60/60/60 80/80/80 79/79/79
f 60/60/60 41/42/42 61/62/62 80/80/80
f 61/62/62 62/61/61 82/81/81 81/82/82
f 62/61/61 63/63/63 83/83/83 82/81/81
f 63/63/63 64/64/64 84/84/84 83/83/83
f 64/64/64 65/65/65 85/85/85 84/84/84
f 65/65/65 66/66/66 86/86/86 85/85/85
f 66/66/66 67/67/67 87/87/87 86/86/86
f 67/67/67 68/68/68 88/88/88 87/87/87
f 68/68/68 69/69/69 89/89/89 88/88/88
f 69/69/69 70/70/70 90/90/90 89/89/89
f 70/70/70 71/71/71 91/91/91 90/90/90
f 71/71/71 72/72/72 92/92/92 91/91/91
f 72/72/72 73/73/73 93/93/93 92/92/92
f 73/73/73 74/74/74 94/94/94 93/93/93
f 74/74/74 75/75/75 95/95/95 94/94/94
f 75/75/75 76/76/76 96/96/96 95/95/95
f 76/76/76 77/77/77 97/97/97 96/96/96
f 77/77/77 78/78/78 98/98/98 97/97/97
f 78/78/78 79/79/79 99/99/99 98/98/98
f 79/79/79 80/80/80 100/100/100 99/99/99
f 80/80/80 61/62/62 81/82/82 100/100/100
f 81/82/82 82/81/81 101/101/101
f 82/81/81 83/83/83 101/101/101
f 83/83/83 84/84/84 101/101/101
f 84/84/84 85/85/85 101/101/101
f 85/85/85 86/86/86 101/101/101
f 86/86/86 87/87/87 101/101/101
f 87/87/87 88/88/88 101/101/101
f 88/88/88 89/89/89 101/101/101
f 89/89/89 90/90/90 101/101/101
f 90/90/90 91/91/91 101/101/101
f 91/91/91 92/92/92 101/101/101
f 92/92/92 93/93/93 101/101/101
f 93/93/93 94/94/94 101/101/101
f 94/94/94 95/95/95 101/101/101
f 95/95/95 96/96/96 101/101/101
f 96/96/96 97/97/97 101/101/101
f 97/97/97 98/98/98 101/101/101
f 98/98/98 99/99/99 101/101/101
f 99/99/99 100/100/100 101/101/101
f 100/100/100 81/82/82 101/101/101
f 103/102/102 102/103/103 13/25/25 12/23/23
f 104/104/104 103/102/102 12/23/23 11/21/21
f 105/105/105 104/104/104 11/21/21 10/19/19
f 106/106/106 105/105/105 10/19/19 9/17/17
f 107/107/107 106/106/106 9/17/17 8/15/15
f 108/108/108 107/107/107 8/15/15 7/13/13
f 109/109/109 108/108/108 7/13/13 6/11/11
f 110/110/110 109/109/109 6/11/11 5/9/9
f 111/111/111 110/110/110 5/9/9 4/7/7
f 112/112/112 111/111/111 4/7/7 3/5/5
f 113/113/113 112/112/112 3/5/5 2/2/2
f 114/114/114 113/113/113 2/2/2 1/1/1
f 115/115/115 114/114/114 1/1/1 20/39/39
f 116/116/116 115/115/115 20/39/39 19/37/37
f 117/117/117 116/116/116 19/37/37 18/35/35
f 118/118/118 117/117/117 18/35/35 17/33/33
f 119/119/119 118/118/118 17/33/33 16/31/31
f 120/120/120 119/119/119 16/31/31 15/29/29
f 121/121/121 120/120/120 15/29/29 14/27/27
f 102/103/103 121/121/121 14/27/27 13/25/25
